<?xml version="1.0" encoding="UTF-8"?>
<svg width="108" height="108" viewBox="0 0 24 24" fill="none" xmlns="http://www.w3.org/2000/svg">
  <path d="M9.5 2A2.5 2.5 0 0 1 12 4.5v15a2.5 2.5 0 0 1-5 0v-15A2.5 2.5 0 0 1 9.5 2Z" fill="#4F46E5"/>
  <path d="M14.5 2A2.5 2.5 0 0 1 17 4.5v15a2.5 2.5 0 0 1-5 0v-15A2.5 2.5 0 0 1 14.5 2Z" fill="#4F46E5"/>
  <path d="M12 4.5v15" stroke="#4F46E5" stroke-width="2" stroke-linecap="round"/>
  <path d="M7 8h10" stroke="#4F46E5" stroke-width="2" stroke-linecap="round"/>
  <path d="M7 12h10" stroke="#4F46E5" stroke-width="2" stroke-linecap="round"/>
  <path d="M7 16h10" stroke="#4F46E5" stroke-width="2" stroke-linecap="round"/>
</svg> 