<?xml version="1.0" encoding="UTF-8"?>
<svg width="200" height="200" viewBox="0 0 200 200" fill="none" xmlns="http://www.w3.org/2000/svg">
  <rect width="200" height="200" fill="#F3F4F6"/>
  <path d="M100 70C88.954 70 80 78.954 80 90C80 101.046 88.954 110 100 110C111.046 110 120 101.046 120 90C120 78.954 111.046 70 100 70ZM100 100C94.477 100 90 95.523 90 90C90 84.477 94.477 80 100 80C105.523 80 110 84.477 110 90C110 95.523 105.523 100 100 100Z" fill="#9CA3AF"/>
  <path d="M100 120C77.909 120 60 137.909 60 160H140C140 137.909 122.091 120 100 120ZM100 140C111.046 140 120 148.954 120 160H80C80 148.954 88.954 140 100 140Z" fill="#9CA3AF"/>
</svg> 